<?xml version="1.0" encoding="UTF-8"?>
<svg id="Capa_1" data-name="Capa 1" xmlns="http://www.w3.org/2000/svg" viewBox="0 0 2847.52 1601.73">
  <defs>
    <style>
      .cls-1 {
        fill: #ffd199;
      }

      .cls-2 {
        fill: #fff;
      }

      .cls-3 {
        fill: #ff8b00;
      }

      .cls-4 {
        fill: #b9b9c9;
      }

      .cls-5 {
        fill: #636383;
      }

      .cls-6 {
        fill: #ffae4d;
      }

      .cls-7 {
        fill: #8a8aa7;
      }
    </style>
  </defs>
  <g>
    <path class="cls-1" d="M614.26,623.11h-23.69v-187H127.97v326.34h-23.69v-285.19c0-33.58,32.81-60.81,73.28-60.81h363.4c40.47,0,73.28,27.22,73.28,60.81v145.85Z"/>
    <path class="cls-6" d="M241.96,818.01h-24.33v-433.53c0-33.58,32.81-60.81,73.28-60.81h507.3c40.47,0,73.28,27.22,73.28,60.81l1.59,204.98h-24.33l-1.59-246.13H241.96v474.68Z"/>
    <path class="cls-3" d="M1133.26,516.46h-23.69l1.36-263.47H382.82s0,637.51,0,637.51h-23.69V294.14c0-33.58,32.81-60.81,73.29-60.81h628.92c40.47,0,73.28,27.23,73.28,60.81l-1.36,222.32Z"/>
  </g>
  <g>
    <path class="cls-4" d="M569.58,1172.82H177.57c-40.47,0-73.28-27.22-73.28-60.81v-329.18h23.69v370.33h491.2v-108.88h23.69v67.73c0,33.58-32.81,60.81-73.28,60.81Z"/>
    <path class="cls-7" d="M818.55,1261.3H290.92c-40.47,0-73.28-27.22-73.28-60.81v-348.59h25.08v389.74h624.04v-169.69h25.08v128.54c0,33.58-32.81,60.81-73.28,60.81Z"/>
    <path class="cls-5" d="M1061.34,1368.4H432.41c-40.47,0-73.28-27.22-73.28-60.81v-374.51h23.69v415.66h728.11v-245.67h23.69v204.52c0,33.58-32.81,60.81-73.28,60.81Z"/>
  </g>
  <path class="cls-3" d="M1630.86,769.06v-18.23c0-23.53-19.29-42.6-43.09-42.6h-27.55v60.83h70.64Z"/>
  <g>
    <path class="cls-3" d="M1878.37,1082.27h-10.84c-3-14.81-11.84-22.96-26.02-22.96s-29.35,11.98-29.35,37.44c0,27.12,13.68,38.94,28.52,38.94,13.01,0,23.02-7.49,26.18-21.63h10.67c-4,19.47-18.51,29.79-37.52,29.79-22.01,0-39.19-15.14-39.19-46.26,0-29.12,18.85-46.43,41.03-46.43,20.35,0,33.85,12.48,36.52,31.12Z"/>
    <path class="cls-3" d="M1974.1,1097.58c0,25.79-14.84,46.26-42.86,46.26s-42.86-20.47-42.86-46.26,14.84-46.43,42.86-46.43,42.86,20.47,42.86,46.43ZM1962.76,1097.58c0-23.96-13.18-38.11-31.52-38.11s-31.52,14.14-31.52,38.11,13.18,38.11,31.52,38.11,31.52-14.14,31.52-38.11Z"/>
    <path class="cls-3" d="M2062.48,1092.26v49.25h-10.34v-48.09c0-4.99,0-8.82-.33-13.31-1.17-11.98-7.84-20.47-22.68-20.47s-27.52,10.65-27.52,38.11v43.76h-10.34v-88.03h10.34v16.97l4.67-9.48c7.17-7.16,15.01-9.82,24.85-9.82,18.68,0,29.35,10.15,31.02,26.29.33,4.49.33,7.65.33,14.81Z"/>
    <path class="cls-3" d="M2142.7,1078.11h-10.84c-2.5-12.15-9.67-18.64-21.51-18.64-10.67,0-17.85,5.99-17.85,15.64,0,10.15,8.34,14.15,21.01,17.31,20.35,4.99,30.02,12.31,30.02,27.12,0,15.64-13.34,24.29-31.52,24.29s-31.35-8.32-33.86-28.29h10.67c2.5,14.98,12.01,20.13,23.85,20.13,11.17,0,20.35-5.16,20.35-15.31s-6.34-14.64-23.51-18.8c-15.18-3.99-27.69-10.15-27.69-25.29s12.01-25.13,29.35-25.13c19.18,0,29.52,11.48,31.52,26.96Z"/>
    <path class="cls-3" d="M2231.08,1141.51h-10.34v-16.97l-4.84,9.82c-7,6.82-15.01,9.49-24.68,9.49-18.01,0-28.68-10.15-30.69-24.13-.5-4.49-.67-7.65-.67-14.81v-51.42h10.34v49.09c0,4.16.17,8.65.67,13.15,1.33,11.65,9.01,19.8,22.68,19.8,14.67,0,27.18-10.65,27.18-38.27v-43.76h10.34v88.03Z"/>
    <path class="cls-3" d="M2265.44,1118.21c0,3.83,0,6.82.17,9.48.33,5.66,2.84,7.16,10.34,6.32v7.65c-2.67.5-5.5.5-8.17.5-6.84,0-12.01-2.33-12.51-11.81-.17-3-.17-6.49-.17-11.81v-99.34h10.34v99.01Z"/>
    <path class="cls-3" d="M2305.63,1117.38c0,3.66,0,5.49.17,7.82.66,8.49,4.34,10.65,16.17,9.15v7.65c-3.5.67-7.17.83-10.67.83-9.84,0-15.01-4.33-15.84-13.98-.17-3-.17-6.32-.17-11.32v-55.41h-11.34v-7.99h11.34v-19.47h10.34v19.47h16.85v7.99h-16.85v55.25Z"/>
    <path class="cls-3" d="M2416.86,1097.58c0,25.79-14.84,46.26-42.86,46.26s-42.86-20.47-42.86-46.26,14.84-46.43,42.86-46.43,42.86,20.47,42.86,46.43ZM2405.52,1097.58c0-23.96-13.18-38.11-31.52-38.11s-31.52,14.14-31.52,38.11,13.18,38.11,31.52,38.11,31.52-14.14,31.52-38.11Z"/>
    <path class="cls-3" d="M2471.06,1052.15v8.15c-15.34-1.17-26.69,8.32-26.69,31.78v49.42h-10.34v-88.03h10.34v15.98l6.34-11.32c4-4.16,9.5-6.66,15.18-6.66,1.83,0,3.67.17,5.17.66Z"/>
    <path class="cls-3" d="M2553.95,1100.58h-66.88c1.17,25.96,14.34,35.11,28.68,35.11,12.34,0,23.35-7.49,26.52-21.96h10.84c-4.17,20.47-20.35,30.12-38.02,30.12-22.02,0-39.19-15.31-39.19-46.26,0-28.29,17.68-46.43,40.86-46.43,24.68,0,37.52,19.64,37.52,43.93,0,1.17,0,2.83-.33,5.49ZM2487.07,1092.42h56.7c-1.17-22.63-12.51-32.95-27.35-32.95s-27.85,10.98-29.35,32.95Z"/>
    <path class="cls-3" d="M2629.49,1078.11h-10.84c-2.5-12.15-9.67-18.64-21.51-18.64-10.68,0-17.85,5.99-17.85,15.64,0,10.15,8.34,14.15,21.01,17.31,20.35,4.99,30.02,12.31,30.02,27.12,0,15.64-13.34,24.29-31.52,24.29s-31.35-8.32-33.85-28.29h10.67c2.5,14.98,12.01,20.13,23.85,20.13,11.17,0,20.35-5.16,20.35-15.31s-6.34-14.64-23.51-18.8c-15.18-3.99-27.69-10.15-27.69-25.29s12.01-25.13,29.35-25.13c19.18,0,29.52,11.48,31.52,26.96Z"/>
  </g>
  <g>
    <path class="cls-2" d="M860.19,939.85l-6.44-17.02h-100.99l-6.43,17.02c-6.29,16.65-22.38,27.69-40.36,27.69h-62.64l121.27-324.2h77.32l121.27,324.2h-62.64c-17.98,0-34.06-11.03-40.36-27.68ZM803.47,761.57l-26.2,85.64h51.97l-25.78-85.64Z"/>
    <path class="cls-2" d="M1195.89,967.53v-133.33l-56.1,91.56c-.67,1.34-1.8,2.23-3.38,2.67-1.58.45-2.93.67-4.06.67-1.35,0-2.82-.22-4.39-.67-1.58-.44-2.7-1.34-3.38-2.67l-56.1-91.56v133.33h-68.61v-259.31h64.22c2.25,0,4.17,1,5.75,3.01l62.18,102.59,62.53-102.59c1.57-2,3.38-3.01,5.41-3.01h64.55v259.31h-68.61Z"/>
    <path class="cls-2" d="M1452.41,967.53h-148.71v-259.31h137.22c4.96,0,10.08.62,15.38,1.84,5.29,1.23,10.48,3.01,15.55,5.35,5.07,2.34,9.8,5.07,14.19,8.19,4.39,3.12,8.16,6.57,11.32,10.36,5.63,6.68,9.97,14.15,13.01,22.39,3.04,8.25,4.56,16.71,4.56,25.4,0,10.03-2.03,19.66-6.08,28.9-4.06,9.25-9.92,17.33-17.58,24.23,4.95,3.12,9.52,6.91,13.69,11.36,4.17,4.46,7.71,9.36,10.65,14.7,2.92,5.35,5.24,10.97,6.93,16.87,1.69,5.9,2.53,11.64,2.53,17.21,0,9.8-1.86,19.1-5.58,27.9-3.72,8.8-8.9,16.49-15.54,23.06-6.65,6.57-14.37,11.81-23.15,15.71-8.78,3.9-18.25,5.85-28.39,5.85ZM1419.63,760.35h-46.98v52.8h46.98c7.21,0,13.46-2.61,18.76-7.85,5.29-5.23,7.94-11.41,7.94-18.55s-2.65-13.31-7.94-18.55c-5.29-5.23-11.55-7.85-18.76-7.85ZM1421.99,860.27h-49.34v52.46h49.34c7.44,0,13.74-2.56,18.93-7.69,5.18-5.12,7.77-11.36,7.77-18.71s-2.6-13.25-7.77-18.38c-5.18-5.12-11.49-7.69-18.93-7.69Z"/>
    <path class="cls-2" d="M1675.14,967.53v-259.31h209.21v61.82h-140.94v37.09h132.82v61.82h-132.82v37.09h140.94v61.49h-209.21Z"/>
    <path class="cls-2" d="M2087.79,967.2l-90.92-138.34v138.34h-69.96v-258.97h69.62l91.25,139.68v-139.68h70.3v258.97h-70.3Z"/>
    <path class="cls-2" d="M2403.46,772.38h-71.98v195.15h-71.31v-195.15h-71.99l-4.73-4.68v-59.48h224.75v59.48l-4.73,4.68Z"/>
    <path class="cls-2" d="M2435.57,924.93v-216.71h166.12c23.8,0,43.09,19.07,43.09,42.6v19.22h-140.94v37.09h132.82v61.82h-132.82v37.09h140.94v61.49h-166.12c-23.8,0-43.09-19.07-43.09-42.6Z"/>
    <path class="cls-2" d="M1560.23,780.3v144.63c0,23.53,19.29,42.6,43.09,42.6h27.55v-187.24h-70.64Z"/>
    <path class="cls-2" d="M2671.92,744c0-6.32,1.58-12.25,4.74-17.78,3.16-5.53,7.51-9.89,13.04-13.09,5.53-3.19,11.49-4.79,17.88-4.79s12.25,1.58,17.78,4.74c5.53,3.16,9.89,7.51,13.09,13.04,3.19,5.53,4.79,11.49,4.79,17.88s-1.53,12.08-4.6,17.54c-3.07,5.47-7.37,9.85-12.9,13.13-5.53,3.29-11.59,4.93-18.16,4.93s-12.58-1.64-18.11-4.91c-5.53-3.27-9.84-7.64-12.92-13.11-3.08-5.47-4.62-11.33-4.62-17.59ZM2676.9,744c0,5.47,1.38,10.58,4.13,15.34,2.75,4.76,6.5,8.5,11.26,11.24,4.76,2.73,9.85,4.1,15.29,4.1s10.61-1.38,15.32-4.13,8.45-6.47,11.21-11.17c2.77-4.69,4.15-9.82,4.15-15.39s-1.38-10.61-4.13-15.32c-2.75-4.71-6.47-8.45-11.17-11.21s-9.82-4.15-15.39-4.15-10.61,1.38-15.32,4.13c-4.71,2.75-8.45,6.47-11.21,11.17-2.77,4.69-4.15,9.82-4.15,15.39ZM2722.04,735.37c0,2.53-.67,4.77-2.02,6.71-1.34,1.94-3.23,3.39-5.67,4.34l11.28,18.73h-7.97l-9.82-16.79h-6.4v16.79h-7.02v-42.25h12.38c5.25,0,9.1,1.03,11.55,3.08,2.45,2.06,3.68,5.19,3.68,9.39ZM2701.46,742.53h5.12c2.53,0,4.56-.66,6.09-1.97,1.53-1.31,2.3-2.98,2.3-5,0-2.37-.68-4.07-2.04-5.1-1.36-1.03-3.51-1.54-6.45-1.54h-5.03v13.61Z"/>
  </g>
</svg>